<?xml version="1.0" standalone="no"?>
<!DOCTYPE svg PUBLIC "-//W3C//DTD SVG 20010904//EN"
 "http://www.w3.org/TR/2001/REC-SVG-20010904/DTD/svg10.dtd">
<svg version="1.0" xmlns="http://www.w3.org/2000/svg"
 width="512.000000pt" height="512.000000pt" viewBox="0 0 512.000000 512.000000"
 preserveAspectRatio="xMidYMid meet">

<g transform="translate(0.000000,512.000000) scale(0.100000,-0.100000)"
fill="#000000" stroke="none">
<path d="M2430 5109 c-320 -49 -588 -279 -685 -589 -108 -344 45 -811 477
-1457 78 -117 260 -365 319 -433 l21 -24 16 21 c532 670 832 1269 832 1658 0
378 -263 710 -639 806 -91 23 -251 32 -341 18z m258 -214 c237 -48 438 -237
497 -470 31 -123 13 -291 -51 -478 -76 -218 -250 -538 -451 -827 -122 -177
-122 -177 -131 -164 -4 5 -53 75 -108 155 -203 289 -381 614 -458 836 -116
336 -80 571 119 769 65 65 99 90 167 123 139 67 269 85 416 56z"/>
<path d="M2434 4556 c-122 -57 -188 -157 -188 -286 -1 -66 4 -85 32 -143 52
-104 141 -165 256 -174 132 -11 245 52 306 171 31 61 35 77 34 145 0 93 -33
169 -95 226 -66 60 -131 85 -219 85 -58 0 -87 -6 -126 -24z m199 -214 c68 -71
23 -182 -73 -182 -96 0 -141 111 -73 182 22 23 35 28 73 28 38 0 51 -5 73 -28z"/>
<path d="M960 3625 l0 -105 320 0 320 0 0 105 0 105 -320 0 -320 0 0 -105z"/>
<path d="M3520 3625 l0 -105 320 0 320 0 0 105 0 105 -320 0 -320 0 0 -105z"/>
<path d="M750 3095 l0 -105 80 0 c57 0 80 -4 80 -12 0 -18 -441 -1250 -453
-1265 -7 -10 -66 -13 -233 -13 l-224 0 0 -100 0 -100 304 0 304 0 11 28 c24
59 591 1656 591 1664 0 4 -103 8 -230 8 l-230 0 0 -105z"/>
<path d="M1336 2362 c-98 -460 -181 -843 -183 -849 -4 -10 281 -13 1407 -13
1126 0 1411 3 1407 13 -2 6 -85 389 -183 849 l-179 838 -202 0 -203 0 0 -105
0 -105 115 0 c84 0 117 -3 120 -13 13 -32 273 -1263 269 -1269 -7 -10 -2281
-10 -2288 0 -4 6 256 1237 269 1269 3 10 36 13 120 13 l115 0 0 105 0 105
-202 0 -203 0 -179 -838z"/>
<path d="M3910 3191 c0 -7 570 -1608 595 -1673 7 -17 31 -18 311 -18 l304 0 0
100 0 100 -224 0 c-167 0 -226 3 -233 13 -12 15 -453 1247 -453 1265 0 8 23
12 80 12 l80 0 0 105 0 105 -230 0 c-126 0 -230 -4 -230 -9z"/>
<path d="M110 855 l0 -105 155 0 155 0 0 105 0 105 -155 0 -155 0 0 -105z"/>
<path d="M750 855 l0 -105 155 0 155 0 0 105 0 105 -155 0 -155 0 0 -105z"/>
<path d="M1390 855 l0 -105 155 0 155 0 0 105 0 105 -155 0 -155 0 0 -105z"/>
<path d="M2030 855 l0 -105 155 0 155 0 0 105 0 105 -155 0 -155 0 0 -105z"/>
<path d="M2670 855 l0 -105 155 0 155 0 0 105 0 105 -155 0 -155 0 0 -105z"/>
<path d="M3310 855 l0 -105 155 0 155 0 0 105 0 105 -155 0 -155 0 0 -105z"/>
<path d="M3950 855 l0 -105 155 0 155 0 0 105 0 105 -155 0 -155 0 0 -105z"/>
<path d="M4590 855 l0 -105 155 0 155 0 0 105 0 105 -155 0 -155 0 0 -105z"/>
<path d="M0 105 l0 -105 2560 0 2560 0 0 105 0 105 -2560 0 -2560 0 0 -105z"/>
</g>
</svg>
